<?xml version="1.0" encoding="UTF-8" standalone="no" ?>
<!DOCTYPE svg PUBLIC "-//W3C//DTD SVG 1.1//EN" "http://www.w3.org/Graphics/SVG/1.1/DTD/svg11.dtd">
<svg xmlns="http://www.w3.org/2000/svg" xmlns:xlink="http://www.w3.org/1999/xlink" version="1.1" width="1280" height="1024" viewBox="0 0 1280 1024" xml:space="preserve">
<desc>Created with Fabric.js 3.1.0</desc>
<defs>
</defs>
<g transform="matrix(1.9692780337941629 0 0 1.9692780337941629 640.0153846153846 512.012312418764)" id="background-logo"  >
<rect style="stroke: none; stroke-width: 1; stroke-dasharray: none; stroke-linecap: butt; stroke-dashoffset: 0; stroke-linejoin: miter; stroke-miterlimit: 4; fill: rgb(255,255,255); fill-rule: nonzero; opacity: 1;"  paint-order="stroke"  x="-325" y="-260" rx="0" ry="0" width="650" height="520" />
</g>
<g transform="matrix(1.9692780337941629 0 0 1.9692780337941629 640.0153846153846 360.46222100809314)" style="" id="logo-logo"  >
	<g transform="matrix(1.073793118677957 0 0 1.073793118677957 0 -2.842171e-14)"  >
<path style="stroke: none; stroke-width: 1; stroke-dasharray: none; stroke-linecap: butt; stroke-dashoffset: 0; stroke-linejoin: miter; stroke-miterlimit: 4; fill: rgb(0,0,0); fill-rule: nonzero; opacity: 1;"  paint-order="stroke"  transform=" translate(-100, -100)" d="M 0 200 h 200 V 0 H 0 V 200 z M 10 10 h 180 v 180 H 10 V 10 z" stroke-linecap="round" />
</g>
</g>
<g transform="matrix(1.9692780337941629 0 0 1.9692780337941629 649.9228355456769 669.1501724614507)" id="text-logo-path"  >
<path style="stroke: none; stroke-width: 1; stroke-dasharray: none; stroke-linecap: butt; stroke-dashoffset: 0; stroke-linejoin: miter; stroke-miterlimit: 10; fill: rgb(0,0,0); fill-rule: nonzero; opacity: 1;"  paint-order="stroke"  transform=" translate(-222.445, 20.799999999999997)" d="M 19.65 0 L 1.76 0 L 1.76 -0.58 L 2.85 -0.58 Q 4.35 -0.58 5.42 -1.63 Q 6.48 -2.68 6.51 -4.18 L 6.51 -4.18 L 6.51 -34.8 Q 6.51 -36.76 6.34 -38.6 Q 6.17 -40.45 5.99 -41.31 L 5.99 -41.31 L 5.82 -42.18 L 6.4 -42.18 L 36.15 -13.8 L 36.15 -37.13 Q 36.13 -38.63 35.07 -39.67 Q 34.02 -40.71 32.52 -40.71 L 32.52 -40.71 L 31.43 -40.71 L 31.43 -41.31 L 49.32 -41.31 L 49.29 -40.71 L 48.23 -40.71 Q 46.73 -40.71 45.68 -39.68 Q 44.62 -38.66 44.57 -37.19 L 44.57 -37.19 L 44.57 -6.71 Q 44.57 -4.75 44.74 -2.87 Q 44.91 -0.98 45.09 -0.06 L 45.09 -0.06 L 45.26 0.84 L 44.71 0.84 L 14.89 -27.57 L 14.89 -4.15 Q 14.95 -2.68 16 -1.63 Q 17.05 -0.58 18.55 -0.58 L 18.55 -0.58 L 19.65 -0.58 L 19.65 0 Z M 60.15 0 L 48.37 0 L 48.37 -0.58 L 48.83 -0.58 Q 50.07 -0.58 51.32 -1.34 Q 52.58 -2.1 53.35 -3.66 L 53.35 -3.66 L 65.51 -29.87 Q 65.57 -29.99 65.93 -30.78 Q 66.29 -31.57 66.62 -32.32 Q 66.95 -33.07 67.34 -34.01 Q 67.73 -34.94 67.97 -35.75 Q 68.22 -36.56 68.28 -37.02 L 68.28 -37.02 L 68.77 -37.02 L 84.55 -3.89 Q 85.36 -2.22 86.61 -1.4 Q 87.87 -0.58 89.19 -0.58 L 89.19 -0.58 L 89.65 -0.58 L 89.65 0 L 72.31 0 L 72.31 -0.58 L 72.77 -0.58 Q 73.95 -0.58 74.67 -1.5 L 74.67 -1.5 Q 75.08 -1.99 75.08 -2.62 L 75.08 -2.62 Q 75.08 -3.17 74.79 -3.86 L 74.79 -3.86 L 72.48 -9.25 L 59.98 -9.25 L 57.65 -3.77 Q 57.42 -3.14 57.42 -2.62 L 57.42 -2.62 Q 57.42 -1.9 57.82 -1.44 L 57.82 -1.44 Q 58.54 -0.58 59.69 -0.58 L 59.69 -0.58 L 60.15 -0.58 L 60.15 0 Z M 66.29 -23.88 L 60.99 -11.58 L 71.5 -11.58 L 66.29 -23.88 Z M 89.08 -17.69 L 89.08 -17.69 Q 89.08 -26.19 94.79 -31.17 Q 100.51 -36.15 109.93 -36.15 L 109.93 -36.15 Q 116.19 -36.15 120.91 -33.94 Q 125.63 -31.72 128.24 -27.51 Q 130.85 -23.31 130.85 -17.69 L 130.85 -17.69 Q 130.85 -9.22 125.12 -4.22 Q 119.38 0.78 109.93 0.78 L 109.93 0.78 Q 100.51 0.78 94.79 -4.22 Q 89.08 -9.22 89.08 -17.69 Z M 98.12 -17.69 L 98.12 -17.69 Q 98.12 -10.26 101.33 -5.91 Q 104.55 -1.56 109.93 -1.56 L 109.93 -1.56 Q 115.35 -1.56 118.56 -5.91 Q 121.77 -10.26 121.77 -17.69 L 121.77 -17.69 Q 121.77 -25.15 118.56 -29.49 Q 115.35 -33.82 109.93 -33.82 L 109.93 -33.82 Q 104.55 -33.82 101.33 -29.49 Q 98.12 -25.15 98.12 -17.69 Z M 129.84 -34.8 L 129.15 -34.8 L 129.15 -35.41 L 147.04 -35.41 L 147.04 -34.8 L 146.41 -34.8 Q 145.28 -34.8 144.68 -33.88 L 144.68 -33.88 Q 144.3 -33.33 144.3 -32.76 L 144.3 -32.76 Q 144.3 -32.32 144.5 -31.89 L 144.5 -31.89 L 152.37 -18.35 L 160.32 -31.89 Q 160.52 -32.35 160.52 -32.78 L 160.52 -32.78 Q 160.52 -33.36 160.18 -33.88 L 160.18 -33.88 Q 159.54 -34.8 158.42 -34.8 L 158.42 -34.8 L 157.78 -34.8 L 157.78 -35.41 L 170.43 -35.41 L 170.43 -34.8 L 169.68 -34.8 Q 168.13 -34.8 166.74 -33.98 Q 165.36 -33.16 164.47 -31.89 L 164.47 -31.89 L 153.98 -15.73 L 153.98 -3.72 Q 154.01 -2.39 154.99 -1.48 Q 155.97 -0.58 157.32 -0.58 L 157.32 -0.58 L 157.96 -0.58 L 157.96 0 L 141.48 0 L 141.48 -0.58 L 142.17 -0.58 Q 143.52 -0.58 144.49 -1.48 Q 145.45 -2.39 145.45 -3.72 L 145.45 -3.72 L 145.45 -15.76 L 135.03 -31.92 Q 134.19 -33.19 132.81 -33.99 Q 131.42 -34.8 129.84 -34.8 L 129.84 -34.8 Z M 174 0 L 162.22 0 L 162.22 -0.58 L 162.68 -0.58 Q 163.92 -0.58 165.17 -1.34 Q 166.43 -2.1 167.21 -3.66 L 167.21 -3.66 L 179.36 -29.87 Q 179.42 -29.99 179.78 -30.78 Q 180.14 -31.57 180.47 -32.32 Q 180.8 -33.07 181.19 -34.01 Q 181.58 -34.94 181.83 -35.75 Q 182.07 -36.56 182.13 -37.02 L 182.13 -37.02 L 182.62 -37.02 L 198.4 -3.89 Q 199.21 -2.22 200.46 -1.4 Q 201.72 -0.58 203.04 -0.58 L 203.04 -0.58 L 203.5 -0.58 L 203.5 0 L 186.16 0 L 186.16 -0.58 L 186.62 -0.58 Q 187.8 -0.58 188.52 -1.5 L 188.52 -1.5 Q 188.93 -1.99 188.93 -2.62 L 188.93 -2.62 Q 188.93 -3.17 188.64 -3.86 L 188.64 -3.86 L 186.33 -9.25 L 173.83 -9.25 L 171.5 -3.77 Q 171.27 -3.14 171.27 -2.62 L 171.27 -2.62 Q 171.27 -1.9 171.67 -1.44 L 171.67 -1.44 Q 172.39 -0.58 173.54 -0.58 L 173.54 -0.58 L 174 -0.58 L 174 0 Z M 180.14 -23.88 L 174.84 -11.58 L 185.35 -11.58 L 180.14 -23.88 Z M 217.94 -32.15 L 217.36 -32.15 L 217.36 -42.44 Q 218.23 -42.06 220.37 -41.73 Q 222.52 -41.4 224.33 -41.37 L 224.33 -41.37 L 248.07 -41.37 Q 249.89 -41.4 252.05 -41.73 Q 254.21 -42.06 255.07 -42.44 L 255.07 -42.44 L 255.07 -32.15 L 254.47 -32.15 L 254.47 -32.84 Q 254.47 -35.55 252.87 -37.18 Q 251.27 -38.81 248.56 -38.86 L 248.56 -38.86 L 240.64 -38.86 L 240.64 -4.26 Q 240.7 -2.74 241.79 -1.66 Q 242.89 -0.58 244.41 -0.58 L 244.41 -0.58 L 245.16 -0.58 L 245.19 0 L 227.24 0 L 227.24 -0.58 L 227.99 -0.58 Q 229.52 -0.58 230.61 -1.63 Q 231.71 -2.68 231.77 -4.21 L 231.77 -4.21 L 231.77 -38.86 L 223.84 -38.86 Q 221.13 -38.81 219.54 -37.18 Q 217.94 -35.55 217.94 -32.84 L 217.94 -32.84 L 217.94 -32.15 Z M 259.39 0 L 247.61 0 L 247.61 -0.58 L 248.07 -0.58 Q 249.31 -0.58 250.56 -1.34 Q 251.82 -2.1 252.59 -3.66 L 252.59 -3.66 L 264.75 -29.87 Q 264.81 -29.99 265.17 -30.78 Q 265.53 -31.57 265.86 -32.32 Q 266.19 -33.07 266.58 -34.01 Q 266.97 -34.94 267.21 -35.75 Q 267.46 -36.56 267.52 -37.02 L 267.52 -37.02 L 268.01 -37.02 L 283.79 -3.89 Q 284.6 -2.22 285.85 -1.4 Q 287.11 -0.58 288.43 -0.58 L 288.43 -0.58 L 288.89 -0.58 L 288.89 0 L 271.55 0 L 271.55 -0.58 L 272.01 -0.58 Q 273.19 -0.58 273.91 -1.5 L 273.91 -1.5 Q 274.32 -1.99 274.32 -2.62 L 274.32 -2.62 Q 274.32 -3.17 274.03 -3.86 L 274.03 -3.86 L 271.72 -9.25 L 259.22 -9.25 L 256.89 -3.77 Q 256.66 -3.14 256.66 -2.62 L 256.66 -2.62 Q 256.66 -1.9 257.06 -1.44 L 257.06 -1.44 Q 257.78 -0.58 258.93 -0.58 L 258.93 -0.58 L 259.39 -0.58 L 259.39 0 Z M 265.53 -23.88 L 260.23 -11.58 L 270.74 -11.58 L 265.53 -23.88 Z M 289.87 -34.83 L 289.24 -34.83 L 289.24 -35.41 L 305.57 -35.41 L 305.57 -34.83 L 304.94 -34.83 Q 303.61 -34.83 302.65 -33.94 Q 301.68 -33.04 301.65 -31.75 L 301.65 -31.75 L 301.65 -3.72 Q 301.68 -2.39 302.63 -1.48 Q 303.58 -0.58 304.94 -0.58 L 304.94 -0.58 L 305.54 -0.58 L 305.54 0 L 289.27 0 L 289.27 -0.58 L 289.87 -0.58 Q 291.23 -0.58 292.18 -1.48 Q 293.13 -2.39 293.16 -3.72 L 293.16 -3.72 L 293.16 -31.69 Q 293.13 -33.01 292.18 -33.92 Q 291.23 -34.83 289.87 -34.83 L 289.87 -34.83 Z M 303.38 -16.54 L 303.38 -16.54 L 315.51 -32.55 Q 316.15 -33.39 315.74 -34.14 Q 315.34 -34.89 314.3 -34.89 L 314.3 -34.89 L 313.81 -34.89 L 313.81 -35.41 L 325.83 -35.41 L 325.83 -34.89 L 325.59 -34.89 Q 322.4 -34.89 320.27 -32.76 L 320.27 -32.76 L 310.47 -21.2 L 322.89 -3.95 Q 324.1 -2.25 325.34 -1.41 Q 326.57 -0.58 328.19 -0.55 L 328.19 -0.55 L 328.19 0 L 323.64 0 Q 315.4 0 311.94 -4.55 L 311.94 -4.55 Q 311.54 -5.13 309.33 -8.2 Q 307.13 -11.26 305.26 -13.89 Q 303.38 -16.51 303.38 -16.54 Z M 356.51 0 L 328.88 0 L 328.88 -0.6 L 329.6 -0.6 Q 330.9 -0.6 331.83 -1.5 Q 332.77 -2.39 332.8 -3.69 L 332.8 -3.69 L 332.8 -31.75 Q 332.77 -33.07 331.85 -33.95 Q 330.92 -34.83 329.6 -34.83 L 329.6 -34.83 L 328.88 -34.83 L 328.88 -35.41 L 349.65 -35.41 Q 351.23 -35.41 353.14 -35.69 Q 355.04 -35.98 355.79 -36.3 L 355.79 -36.3 L 355.79 -26.91 L 355.18 -26.91 L 355.18 -27.45 Q 355.18 -30.02 353.76 -31.52 Q 352.33 -33.01 349.79 -33.04 L 349.79 -33.04 L 341.3 -33.04 L 341.3 -18.73 L 348.01 -18.73 Q 350.05 -18.75 351.29 -20.07 Q 352.53 -21.38 352.53 -23.39 L 352.53 -23.39 L 352.53 -23.77 L 353.14 -23.77 L 353.14 -11.29 L 352.53 -11.29 L 352.53 -11.7 Q 352.53 -13.68 351.32 -14.99 Q 350.11 -16.31 348.09 -16.36 L 348.09 -16.36 L 341.3 -16.36 L 341.3 -2.36 L 348.41 -2.36 Q 352.07 -2.39 354.62 -4.62 Q 357.17 -6.86 358.35 -10.86 L 358.35 -10.86 L 358.93 -10.86 L 356.65 0 L 356.51 0 Z M 362.47 -34.8 L 361.78 -34.8 L 361.78 -35.41 L 381.71 -35.41 Q 391.22 -35.41 396.61 -30.7 Q 402 -25.99 402 -17.66 Q 402 -9.33 396.61 -4.67 Q 391.22 0 381.71 0 L 381.71 0 L 361.81 0 L 361.81 -0.58 L 362.53 -0.58 Q 363.88 -0.58 364.85 -1.51 Q 365.81 -2.45 365.84 -3.77 L 365.84 -3.77 L 365.84 -31.75 Q 365.78 -33.07 364.82 -33.94 Q 363.85 -34.8 362.47 -34.8 L 362.47 -34.8 Z M 374.37 -33.07 L 374.37 -2.36 L 381.02 -2.36 Q 386.58 -2.36 389.78 -6.42 Q 392.98 -10.49 392.98 -17.66 L 392.98 -17.66 Q 392.98 -24.89 389.78 -28.98 Q 386.58 -33.07 381.02 -33.07 L 381.02 -33.07 L 374.37 -33.07 Z M 413.63 0 L 401.85 0 L 401.85 -0.58 L 402.31 -0.58 Q 403.55 -0.58 404.8 -1.34 Q 406.06 -2.1 406.83 -3.66 L 406.83 -3.66 L 418.99 -29.87 Q 419.05 -29.99 419.41 -30.78 Q 419.77 -31.57 420.1 -32.32 Q 420.43 -33.07 420.82 -34.01 Q 421.21 -34.94 421.46 -35.75 Q 421.7 -36.56 421.76 -37.02 L 421.76 -37.02 L 422.25 -37.02 L 438.03 -3.89 Q 438.84 -2.22 440.09 -1.4 Q 441.35 -0.58 442.67 -0.58 L 442.67 -0.58 L 443.13 -0.58 L 443.13 0 L 425.79 0 L 425.79 -0.58 L 426.25 -0.58 Q 427.43 -0.58 428.15 -1.5 L 428.15 -1.5 Q 428.56 -1.99 428.56 -2.62 L 428.56 -2.62 Q 428.56 -3.17 428.27 -3.86 L 428.27 -3.86 L 425.96 -9.25 L 413.46 -9.25 L 411.13 -3.77 Q 410.9 -3.14 410.9 -2.62 L 410.9 -2.62 Q 410.9 -1.9 411.3 -1.44 L 411.3 -1.44 Q 412.02 -0.58 413.17 -0.58 L 413.17 -0.58 L 413.63 -0.58 L 413.63 0 Z M 419.77 -23.88 L 414.47 -11.58 L 424.98 -11.58 L 419.77 -23.88 Z" stroke-linecap="round" />
</g>
<g transform="matrix(1.9692780337941629 0 0 1.9692780337941629 640.0068950215854 357.4120418316504)" id="tagline-e24f4837-2665-4e60-9256-dc5e55591794-logo-path"  >
<path style="stroke: none; stroke-width: 1; stroke-dasharray: none; stroke-linecap: butt; stroke-dashoffset: 0; stroke-linejoin: miter; stroke-miterlimit: 4; fill: rgb(0,0,0); fill-rule: nonzero; opacity: 1;"  paint-order="stroke"  transform=" translate(-70.675, 73.87)" d="M 34.21 0 L 5.25 0 L 5.25 -4.02 L 16.9 -4.02 L 16.9 -143.72 L 5.25 -143.72 L 5.25 -147.74 L 63.46 -147.74 L 118.79 -41.83 L 118.79 -143.72 L 107.15 -143.72 L 107.15 -147.74 L 136.1 -147.74 L 136.1 -143.72 L 124.46 -143.72 L 124.46 0 L 94.99 0 L 22.56 -136.51 L 22.56 -4.02 L 34.21 -4.02 L 34.21 0 Z" stroke-linecap="round" />
</g>
</svg>